<?xml version="1.0" encoding="utf-8"?>
<!-- Svg Vector Icons : http://www.onlinewebfonts.com/icon -->
<!DOCTYPE svg PUBLIC "-//W3C//DTD SVG 1.1//EN" "http://www.w3.org/Graphics/SVG/1.1/DTD/svg11.dtd">
<svg version="1.1" xmlns="http://www.w3.org/2000/svg" xmlns:xlink="http://www.w3.org/1999/xlink" x="0px" y="0px" viewBox="0 0 1000 1000" enable-background="new 0 0 1000 1000" xml:space="preserve">
<metadata> Svg Vector Icons : http://www.onlinewebfonts.com/icon </metadata>
<g><g transform="translate(0.000000,512.000000) scale(0.100000,-0.100000)"><path d="M1792,4974.7c-44-38.3-53.6-65.1-61.2-162.7l-7.7-118.7h-103.4c-120.6,0-191.4-49.8-210.5-147.4c-9.6-51.7-1.9-70.8,45.9-120.6c51.7-49.8,72.7-57.4,162.7-57.4h105.3l7.7-118.7c7.7-97.6,17.2-124.4,61.2-162.7c68.9-57.4,153.1-57.4,212.5,3.8c40.2,38.3,47.9,65.1,47.9,162.7v114.8h114.8c143.6,0,210.5,51.7,210.5,162.7c0,111-67,162.7-210.5,162.7h-114.8v114.8c0,97.6-7.7,124.4-47.9,162.7C1945.2,5032.1,1860.9,5032.1,1792,4974.7z"/><path d="M6521.7,4970.9c-26.8-24.9-47.9-59.3-47.9-74.6c0-17.2-28.7-42.1-63.2-57.4c-86.1-34.5-124.4-122.5-88.1-204.8c15.3-38.3,47.9-70.8,88.1-86.1c34.5-15.3,63.2-40.2,63.2-57.4c0-15.3,21-49.8,47.9-74.6c88-90,204.8-55.5,275.6,82.3c11.5,23,34.4,42.1,47.9,42.1c47.9,0,107.2,86.1,107.2,155c0,72.7-63.2,151.2-120.6,151.2c-17.2,0-32.5,13.4-32.5,30.6c0,15.3-24.9,55.5-55.5,86.1C6671,5034,6586.8,5037.9,6521.7,4970.9z"/><path d="M4588.5,4339.2c-468.9-57.4-870.9-181.8-1270.9-394.3C2372,3441.5,1688.7,2528.5,1480,1487.3c-45.9-231.6-88-673.8-70.8-744.6c21.1-80.4,78.5-126.3,162.7-126.3c116.8,0,149.3,53.6,162.7,283.3c70.8,1091,587.6,2009.8,1462.3,2593.6c957,637.4,2193.5,719.7,3229,212.5c909.2-442.2,1560-1278.6,1770.5-2270.1c21-97.6,47.9-302.4,59.3-455.5c24.9-321.6,44-363.7,174.2-363.7c82.3,0,141.6,45.9,160.8,124.4c17.2,68.9-24.9,520.6-70.8,746.5C8156.3,3299.9,6412.6,4565.1,4588.5,4339.2z"/><path d="M9147.8,4329.7c-24.9-21.1-53.6-59.3-59.3-86.1c-7.6-26.8-24.9-47.9-42.1-47.9c-15.3,0-49.8-21.1-74.7-47.9c-90-88-55.5-204.8,82.3-275.6c23-11.5,42.1-34.5,42.1-47.9c0-45.9,86.1-107.2,151.2-107.2c65.1,0,155,70.8,155,122.5c0,15.3,24.9,36.4,55.5,45.9c139.7,47.9,153.1,229.7,22.9,294.8c-38.3,19.1-76.6,57.4-89.9,91.9C9350.7,4366,9232,4394.7,9147.8,4329.7z"/><path d="M4705.2,3696.1c-669.9-70.8-1284.3-359.8-1762.9-830.7c-392.4-384.7-656.5-849.8-794.3-1395.3c-53.6-214.4-105.3-668-82.3-733.1c42.1-122.5,189.5-162.7,271.8-74.6c36.4,40.2,45.9,76.6,59.3,271.8c19.1,273.7,59.3,470.8,137.8,692.9c231.6,656.5,687.1,1173.3,1311.1,1485.3c937.9,470.9,2076.8,317.7,2880.7-382.8c329.2-289,587.6-673.8,738.8-1102.5c78.5-222,118.7-419.2,137.8-692.9c13.4-195.2,23-231.6,59.3-271.8c82.3-88.1,229.7-47.9,271.8,72.7c17.2,45.9-19.1,446-55.5,622.1c-78.5,388.6-285.2,849.9-520.6,1165.7C6736.1,3353.5,5719.7,3803.3,4705.2,3696.1z"/><path d="M1564.3,3533.4c-135.9-26.8-357.9-72.7-491.9-105.3c-201-47.9-252.7-67-283.3-107.2c-38.3-49.8-38.3-76.6-38.3-3694.1v-3646.3l55.5-55.5c30.6-30.6,68.9-55.5,84.2-55.5c15.3,0,135.9,24.9,268,57.4c673.8,160.8,1586.8,268,2281.6,268c467,0,780.9-51.7,1211.6-197.1l176.1-59.3v-197.1v-197.1l-2023.2,3.8c-1933.2,5.7-2028.9,7.6-2092.1,42.1c-93.8,49.8-187.6,141.6-235.4,231.6l-42.1,76.6l-9.6,3282.6c-5.7,1805-17.2,3296-24.9,3313.3c-19.1,36.4-93.8,74.6-149.3,74.6c-21.1,0-65.1-24.9-95.7-55.5l-55.5-57.4l3.8-3307.5l5.7-3309.4l70.8-143.6c88-178,233.5-321.6,411.5-405.8l130.2-61.3l4210.9-5.7c3173.5-3.8,4237.7,0,4316.2,17.2c296.7,63.2,545.5,300.5,624,599.1c21.1,80.4,26.8,656.5,26.8,3357.3v3261.6l-55.5,55.5c-30.6,30.6-74.6,55.5-95.7,55.5c-59.3,0-130.1-38.3-153.1-84.2c-15.3-28.7-22.9-945.6-26.8-3313.3l-3.8-3273.1l-42.1-76.6c-47.9-90-141.6-181.8-235.4-231.6c-63.2-34.5-158.9-36.4-2090.2-42.1l-2025.1-3.8v191.4v189.5l187.6,59.3c258.4,80.4,566.6,147.4,836.4,183.8c181.8,24.9,327.3,28.7,698.6,21.1c700.5-17.2,1334.1-99.5,1937-254.6c145.5-38.3,281.4-63.2,302.4-55.5c21,5.7,55.5,34.5,76.6,61.3c38.3,49.8,38.3,63.2,38.3,3688.4c0,4046.3,11.5,3694.1-130.2,3755.4c-130.1,53.6-522.5,139.7-790.5,172.3c-248.8,30.6-266.1,30.6-313.9,0c-97.6-63.2-109.1-179.9-26.8-256.5c28.7-26.8,91.9-42.1,243.1-59.3c208.6-24.9,518.7-82.3,631.6-118.7l61.3-21.1V-325.4c0-3236.7-1.9-3426.2-32.5-3414.7c-74.6,28.7-704.4,147.4-972.3,181.8c-704.4,91.9-1529.3,101.4-1967.7,23c-260.3-47.9-593.4-132.1-796.3-201l-141.6-49.8l-179.9,67c-243.1,91.9-566.6,174.2-840.3,212.5c-185.7,24.9-319.6,28.7-735,21.1c-683.3-15.3-1320.7-86.1-1933.2-216.3c-120.6-24.9-225.9-45.9-233.5-45.9c-9.6,0-15.3,1540.8-15.3,3424.3v3422.3l292.8,59.3c158.9,34.5,356,70.8,434.5,84.2c112.9,17.2,155,34.5,197.1,74.7c68.9,68.9,67,137.8-3.8,210.5C1927.9,3596.6,1899.2,3596.6,1564.3,3533.4z"/><path d="M4760.7,3045.3c-369.4-38.3-834.5-218.2-1110.2-428.7c-570.4-432.6-928.3-1110.2-928.3-1760.9c0-137.8,5.7-160.8,44-197.1c63.2-59.3,166.5-55.5,224,5.7c38.3,40.2,45.9,76.6,59.3,252.7c36.4,486.2,243.1,922.6,597.2,1263.3c336.9,321.6,717.8,497.7,1175.2,539.8c591.4,53.6,1163.7-158.9,1579.1-587.6c331.1-342.6,511.1-740.7,547.4-1211.6c15.3-179.9,23-216.3,61.3-256.5c61.3-65.1,168.4-65.1,229.7,0c42.1,45.9,44,55.5,32.5,271.8c-28.7,547.4-268,1066.1-675.7,1464.3c-197.2,193.3-336.9,292.9-591.5,417.3c-260.3,130.1-499.6,199.1-796.2,229.7C4994.3,3068.3,4980.9,3068.3,4760.7,3045.3z"/><path d="M4883.2,2346.7l-45.9-49.8L4831.6-490c-3.8-1983,0-2809.8,15.3-2861.5c15.3-53.6,38.3-80.4,88-103.4c61.2-30.6,68.9-30.6,130.2,0c49.8,23,72.7,49.8,88,103.4c15.3,51.7,19.1,878.6,15.3,2861.5l-5.7,2786.9l-45.9,49.8c-34.4,36.3-67,49.8-116.7,49.8C4950.2,2396.5,4917.7,2383.1,4883.2,2346.7z"/><path d="M3110.8,90c-51.7-36.4-67-84.2-141.6-468.9c-32.5-174.2-67-323.5-74.6-331.1c-7.7-9.6-179.9-49.8-380.9-90c-201-40.2-373.2-80.4-384.7-86.1c-38.3-23-76.6-124.4-65.1-170.3c23-97.6,76.6-118.7,467-197.2l371.3-74.6l74.6-371.3c84.2-421.1,103.4-459.4,227.8-459.4c80.4,0,141.6,45.9,158.9,118.7c5.7,24.9,40.2,193.3,76.6,377.1c36.4,183.7,68.9,335,70.8,336.9c3.8,1.9,147.4,30.6,321.6,65.1c446,88,453.6,90,488.1,155c40.2,76.6,36.4,122.5-15.3,181.8c-38.3,45.9-84.2,59.3-413.4,126.3c-204.8,40.2-375.2,78.5-380.9,84.2c-5.7,3.8-42.1,174.2-82.3,377.1c-65.1,323.5-80.4,375.1-122.5,413.4C3248.6,126.4,3170.2,132.1,3110.8,90z M3242.9-962.7c21-26.8,51.7-47.9,68.9-47.9c23-1.9,15.3-9.6-19.1-28.7c-28.7-15.3-55.5-45.9-63.2-67c-11.5-34.5-15.3-32.5-72.7,23l-61.3,61.3l47.9,51.7C3204.6-905.3,3198.9-907.2,3242.9-962.7z"/><path d="M6724.6-1535c-65.1-36.4-95.7-103.4-97.6-206.7v-91.9h-90c-176.1,0-275.6-116.7-208.6-245c36.4-68.9,63.2-80.4,195.2-80.4H6627v-95.7c0-122.5,42.1-204.8,111-224c135.9-36.4,210.5,28.7,218.2,193.3l5.7,116.7l114.8,5.7c141.7,7.7,201,53.6,201,155.1c-1.9,118.7-78.5,174.2-241.2,174.2h-84.2v111c-1.9,114.8-19.1,155.1-90,191.4C6810.7-1502.5,6782-1502.5,6724.6-1535z"/></g></g>
</svg>